# xmcd CD database file
# Copyright (C) 1993-1998 Ti Kan
#
# Track frame offsets:
#  208
#  12113
#  23955
#  36113
#  45840
#  54033
#  66973
#  78940
#  91915
#  102058
#  112110
#  128530
#
# Disc length: 1868 seconds
#
# Revision: 1
# Processed by: cddbd v1.4b41PL1 Copyright (c) Steve Scherf et al.
# Submitted via: CDWizzard Release:4.35
#
DISCID=82074a0c
DTITLE=Ike and Tina Turner - Ike and Tina Turner Golden Classics
DYEAR=1900
DGENRE=
TTITLE0=It's Gonna Work Out Fine
TTITLE1=Poor Fool
TTITLE2=Tra La La La La
TTITLE3=You Can't Blame Me
TTITLE4=This Man's Crazy
TTITLE5=I Idolize You
TTITLE6=A Fool In Love
TTITLE7=Puppy Love
TTITLE8=The Argument
TTITLE9=Mind In A Whirl
TTITLE10=You Should've Treated Me Right
TTITLE11=Letter From Tina
EXTD=
EXTT0=
EXTT1=
EXTT2=
EXTT3=
EXTT4=
EXTT5=
EXTT6=
EXTT7=
EXTT8=
EXTT9=
EXTT10=
EXTT11=
PLAYORDER=
